<?xml version="1.0" encoding="UTF-8"?>
<!DOCTYPE svg PUBLIC "-//W3C//DTD SVG 1.1//EN" "http://www.w3.org/Graphics/SVG/1.1/DTD/svg11.dtd">
<svg xmlns="http://www.w3.org/2000/svg" version="1.1" width="500px" height="500px" style="shape-rendering:geometricPrecision; text-rendering:geometricPrecision; image-rendering:optimizeQuality; fill-rule:evenodd; clip-rule:evenodd" xmlns:xlink="http://www.w3.org/1999/xlink">
<g><path style="opacity:1" fill="#fefefe" d="M -0.5,-0.5 C 166.167,-0.5 332.833,-0.5 499.5,-0.5C 499.5,166.167 499.5,332.833 499.5,499.5C 332.833,499.5 166.167,499.5 -0.5,499.5C -0.5,332.833 -0.5,166.167 -0.5,-0.5 Z"/></g>
<g><path style="opacity:1" fill="#24cc98" d="M 372.5,206.5 C 381.152,207.146 389.818,207.479 398.5,207.5C 398.042,215.831 397.542,224.165 397,232.5C 394.791,234.706 392.291,235.04 389.5,233.5C 388.422,227.508 388.422,221.508 389.5,215.5C 383.824,215.666 378.157,215.499 372.5,215C 369.939,212.177 369.939,209.343 372.5,206.5 Z"/></g>
<g><path style="opacity:1" fill="#25cc99" d="M 374.5,233.5 C 375.451,232.081 375.784,230.415 375.5,228.5C 370.5,228.5 365.5,228.5 360.5,228.5C 358.182,228.182 356.848,226.848 356.5,224.5C 356.632,222.399 357.632,220.899 359.5,220C 367.816,220.123 376.149,220.29 384.5,220.5C 383.834,228.814 383.334,237.147 383,245.5C 380.582,247.68 377.916,248.013 375,246.5C 374.501,242.179 374.334,237.846 374.5,233.5 Z"/></g>
<g><path style="opacity:1" fill="#41404d" d="M 196.5,226.5 C 202.704,226.314 204.037,228.814 200.5,234C 194.403,234.147 193.07,231.647 196.5,226.5 Z"/></g>
<g><path style="opacity:1" fill="#3c3b47" d="M 244.5,226.5 C 247.044,226.104 249.211,226.771 251,228.5C 251.176,231.882 251.676,235.215 252.5,238.5C 259.004,234.714 265.67,234.547 272.5,238C 275.106,239.938 276.939,242.438 278,245.5C 278.832,254.186 278.665,262.853 277.5,271.5C 275.031,273.007 272.865,272.673 271,270.5C 270.667,262.833 270.333,255.167 270,247.5C 266.634,242.391 262.134,241.224 256.5,244C 254.622,245.543 253.122,247.376 252,249.5C 251.667,256.5 251.333,263.5 251,270.5C 248.925,272.648 246.592,272.982 244,271.5C 243.184,256.426 243.351,241.426 244.5,226.5 Z"/></g>
<g><path style="opacity:1" fill="#3e3d49" d="M 140.5,229.5 C 140.171,235.537 140.504,241.537 141.5,247.5C 142.107,247.376 142.44,247.043 142.5,246.5C 149.629,240.542 156.629,234.375 163.5,228C 166.868,226.795 169.202,227.795 170.5,231C 164.867,236.964 158.867,242.631 152.5,248C 157.986,254.453 163.82,260.62 170,266.5C 171.167,271.333 169.333,273.166 164.5,272C 158.606,265.695 152.606,259.528 146.5,253.5C 144.742,254.128 143.242,255.128 142,256.5C 141.667,261.167 141.333,265.833 141,270.5C 138.253,273.034 135.587,273.034 133,270.5C 132.333,256.833 132.333,243.167 133,229.5C 135.621,226.86 138.121,226.86 140.5,229.5 Z"/></g>
<g><path style="opacity:1" fill="#a9ebd7" d="M 360.5,228.5 C 365.5,228.5 370.5,228.5 375.5,228.5C 375.784,230.415 375.451,232.081 374.5,233.5C 374.5,232.167 374.5,230.833 374.5,229.5C 369.637,229.819 364.97,229.486 360.5,228.5 Z"/></g>
<g><path style="opacity:1" fill="#83828a" d="M 140.5,229.5 C 141.167,235.167 141.833,240.833 142.5,246.5C 142.44,247.043 142.107,247.376 141.5,247.5C 140.504,241.537 140.171,235.537 140.5,229.5 Z"/></g>
<g><path style="opacity:1" fill="#3c3b48" d="M 214.5,235.5 C 221.526,234.805 228.193,235.972 234.5,239C 239.24,244.791 237.906,247.458 230.5,247C 228.63,243.398 225.63,241.898 221.5,242.5C 217.724,241.789 215.057,243.123 213.5,246.5C 213.608,247.442 213.941,248.275 214.5,249C 220.122,250.258 225.789,251.258 231.5,252C 237.487,254.14 239.654,258.307 238,264.5C 232.47,272.236 224.97,275.07 215.5,273C 209.089,271.598 205.589,267.765 205,261.5C 205.804,260.196 206.971,259.529 208.5,259.5C 211.596,261.513 214.596,263.68 217.5,266C 222.072,267.076 226.239,266.243 230,263.5C 230.783,261.567 230.283,260.067 228.5,259C 223.917,257.855 219.251,257.189 214.5,257C 206.913,254.997 204.08,250.164 206,242.5C 208.416,239.577 211.25,237.243 214.5,235.5 Z"/></g>
<g><path style="opacity:1" fill="#393845" d="M 301.5,235.5 C 311.462,233.669 318.295,237.335 322,246.5C 322.667,254.5 322.667,262.5 322,270.5C 319.667,273.167 317.333,273.167 315,270.5C 314.667,263.167 314.333,255.833 314,248.5C 311.006,242.635 306.506,241.135 300.5,244C 298.291,245.873 296.458,248.04 295,250.5C 294.667,257.167 294.333,263.833 294,270.5C 291.667,273.167 289.333,273.167 287,270.5C 286.333,259.5 286.333,248.5 287,237.5C 290.394,235.725 293.06,236.392 295,239.5C 297.314,238.267 299.481,236.933 301.5,235.5 Z"/></g>
<g><path style="opacity:1" fill="#3b3a47" d="M 339.5,235.5 C 344.821,234.979 349.821,235.979 354.5,238.5C 357.128,236.367 359.961,236.034 363,237.5C 363.667,248.5 363.667,259.5 363,270.5C 360.034,273.265 357.367,272.932 355,269.5C 341.581,276.803 332.581,273.136 328,258.5C 326.539,248.089 330.372,240.422 339.5,235.5 Z"/></g>
<g><path style="opacity:1" fill="#3e3d4a" d="M 193.5,238.5 C 193.5,239.5 193.5,240.5 193.5,241.5C 193.389,242.117 193.056,242.617 192.5,243C 188.439,242.696 185.273,244.196 183,247.5C 181.93,255.446 181.096,263.446 180.5,271.5C 178.031,273.007 175.865,272.673 174,270.5C 173.333,259.833 173.333,249.167 174,238.5C 177.222,235.645 180.056,235.979 182.5,239.5C 186.112,236.083 189.779,235.75 193.5,238.5 Z"/></g>
<g><path style="opacity:1" fill="#383744" d="M 195.5,270.5 C 195.5,259.833 195.5,249.167 195.5,238.5C 197.282,236.313 199.448,235.98 202,237.5C 202.832,248.848 202.666,260.181 201.5,271.5C 199.065,273.052 197.065,272.719 195.5,270.5 Z"/></g>
<g><path style="opacity:1" fill="#6c6b75" d="M 193.5,238.5 C 194.167,238.5 194.833,238.5 195.5,238.5C 195.5,249.167 195.5,259.833 195.5,270.5C 194.833,260.833 194.167,251.167 193.5,241.5C 193.5,240.5 193.5,239.5 193.5,238.5 Z"/></g>
<g><path style="opacity:1" fill="#f9f9f9" d="M 342.5,242.5 C 355.042,242.923 359.208,249.256 355,261.5C 350.865,265.191 346.031,266.358 340.5,265C 333.331,256.703 333.998,249.203 342.5,242.5 Z"/></g>
</svg>
